<?xml version="1.0" encoding="UTF-8"?>
<svg width="16px" height="16px" viewBox="0 0 16 16" version="1.1" xmlns="http://www.w3.org/2000/svg" xmlns:xlink="http://www.w3.org/1999/xlink">
    <title>required</title>
    <g id="控件" stroke="none" stroke-width="1" fill="none" fill-rule="evenodd">
        <g id="icon/通用Common/线Line/required" fill-rule="nonzero">
            <g id="required">
                <rect id="矩形" fill="#000000" opacity="0" x="0" y="0" width="16" height="16"></rect>
                <path d="M10.3125,7.2 L8.26875,8 L10.3125,8.8 C10.83125,9.00625 11.13125,9.16875 11.2125,9.29375 C11.29375,9.41875 11.33125,9.5375 11.33125,9.6625 C11.33125,9.99375 11.26875,10.175 11.15,10.21875 C11.03125,10.2625 10.90625,10.28125 10.7875,10.28125 C10.6625,10.28125 10.54375,10.25 10.425,10.1875 C10.30625,10.125 10.1625,10.03125 10,9.9125 L8.125,8.1875 L8.55,10.76875 C8.5875,10.89375 8.6125,11.00625 8.6125,11.10625 L8.6125,11.325 C8.6125,11.56875 8.55,11.74375 8.43125,11.85 C8.3125,11.95 8.16875,12.00625 8.00625,12.00625 C7.88125,12.00625 7.75,11.9625 7.60625,11.88125 C7.4625,11.8 7.3875,11.6125 7.3875,11.325 C7.3875,11.24375 7.4,11.1625 7.41875,11.08125 C7.4375,11 7.45,10.89375 7.45,10.775 L7.9375,8.1875 L6.025,9.9125 C5.9,9.99375 5.76875,10.075 5.625,10.15625 C5.48125,10.2375 5.35,10.28125 5.225,10.28125 C5.1,10.28125 4.98125,10.2375 4.85625,10.15625 C4.73125,10.075 4.66875,9.9125 4.66875,9.6625 C4.66875,9.5 4.73125,9.35625 4.85,9.23125 C4.96875,9.10625 5.25,8.9625 5.6875,8.8 L7.73125,8 L5.6875,7.2 C5.40625,7.075 5.16875,6.9625 4.96875,6.8625 C4.76875,6.7625 4.66875,6.5875 4.66875,6.3375 C4.66875,6.13125 4.73125,5.98125 4.85,5.875 C4.96875,5.775 5.09375,5.71875 5.2125,5.71875 C5.33125,5.71875 5.4625,5.75 5.60625,5.8125 C5.75,5.875 5.875,5.96875 6,6.0875 L7.88125,7.8125 L7.45625,5.23125 C7.45625,5.10625 7.44375,5.00625 7.425,4.925 C7.40625,4.84375 7.39375,4.7625 7.39375,4.68125 C7.39375,4.51875 7.45625,4.3625 7.575,4.21875 C7.69375,4.075 7.8375,4.00625 8,4.00625 C8.25,4.00625 8.4125,4.0875 8.49375,4.25 C8.575,4.4125 8.61875,4.55625 8.61875,4.68125 L8.61875,4.95625 C8.61875,5.05625 8.6,5.15 8.55625,5.23125 L8.0625,7.8125 L9.975,6.0875 C10.1375,5.925 10.28125,5.81875 10.40625,5.78125 C10.53125,5.7375 10.65,5.71875 10.775,5.71875 C10.9375,5.71875 11.075,5.78125 11.175,5.90625 C11.275,6.03125 11.33125,6.175 11.33125,6.3375 C11.33125,6.5 11.29375,6.6375 11.2125,6.7375 C11.13125,6.84375 10.83125,6.99375 10.3125,7.2 Z" id="路径" fill="#EF000C"></path>
            </g>
        </g>
    </g>
</svg>