<?xml version="1.0" encoding="UTF-8"?>
<svg width="12px" height="12px" viewBox="0 0 12 12" version="1.1" xmlns="http://www.w3.org/2000/svg" xmlns:xlink="http://www.w3.org/1999/xlink">
    <title>icon/修改@1x</title>
    <g id="icon/修改" stroke="none" stroke-width="1" fill="none" fill-rule="evenodd">
        <path d="M5.8265625,8.20702576e-06 C7.6078125,0.00470394294 9.140625,1.09689144 9.7921875,2.64376644 C9.84375,2.77032894 9.7546875,2.90626644 9.61875,2.90626644 L9.61875,2.90626644 L9.20625,2.90626644 C9.1359375,2.90626644 9.0703125,2.86407894 9.0375,2.79845394 C8.45625,1.57032894 7.2,0.721891443 5.746875,0.750016443 C3.796875,0.787516443 2.25,2.41407894 2.25,4.36407894 L2.25,4.36407894 L2.25,4.50939144 L10.125,4.50939144 L10.125,10.8375164 C10.125,10.9406414 10.040625,11.0250164 9.9375,11.0250164 L9.9375,11.0250164 L1.6875,11.0250164 C1.584375,11.0250164 1.5,10.9406414 1.5,10.8375164 L1.5,10.8375164 L1.5,4.37345394 C1.5,1.99220394 3.4453125,-0.00467105706 5.8265625,8.20702576e-06 Z M9.375,5.25939144 L2.25,5.25939144 L2.25,10.2750164 L9.375,10.2750164 L9.375,5.25939144 Z M5.775,6.27189144 C6.20625,6.24845394 6.5625,6.59532894 6.5625,7.02189144 C6.5625,7.29845394 6.4125,7.53751644 6.1875,7.66876644 L6.1875,7.66876644 L6.1875,8.70001644 C6.1875,8.80314144 6.103125,8.88751644 6,8.88751644 L6,8.88751644 L5.625,8.88751644 C5.521875,8.88751644 5.4375,8.80314144 5.4375,8.70001644 L5.4375,8.70001644 L5.4375,7.66876644 C5.203125,7.53282894 5.0484375,7.27501644 5.0625,6.97970394 C5.08125,6.60001644 5.3953125,6.29064144 5.775,6.27189144 Z" id="形状结合" fill="#999999" fill-rule="nonzero"></path>
    </g>
</svg>