<?xml version="1.0" encoding="UTF-8"?>
<svg width="12px" height="12px" viewBox="0 0 12 12" version="1.1" xmlns="http://www.w3.org/2000/svg" xmlns:xlink="http://www.w3.org/1999/xlink">
    <title>icon/帮助@1x</title>
    <g id="icon/帮助" stroke="none" stroke-width="1" fill="none" fill-rule="evenodd">
        <path d="M8.9763999,11 L2.45079167,11 C2.06373539,10.9986177 1.69315985,10.8431723 1.42094604,10.5680103 C1.14873222,10.2928483 0.99728752,9.9206199 1.00003679,9.53357118 L1.00003679,1.47344993 C0.997168757,0.66848756 1.6458447,0.0127862517 2.45079167,0.0070211216 L7.11194041,0.0070211216 C7.24057657,-0.0171320356 7.37299697,0.0218151398 7.46807311,0.111766033 L10.3014231,2.97130223 C10.36814,3.02954529 10.4125673,3.10914413 10.427117,3.1965038 C10.4322064,3.23298789 10.4322064,3.27000187 10.427117,3.30648596 L10.427117,9.53357118 C10.429904,9.9206199 10.2784593,10.2928483 10.0062455,10.5680103 C9.73403171,10.8431723 9.36345618,10.9986177 8.9763999,11 Z M7.52568283,1.31109532 L7.52568283,2.9346415 L9.13875452,2.9346415 L7.52568283,1.31109532 Z M9.70437706,3.66785592 L7.16431287,3.66785592 C7.06755724,3.66786608 6.97483869,3.6290752 6.9069161,3.56016822 C6.83899351,3.49126124 6.80154065,3.39799417 6.80294291,3.30124871 L6.80294291,0.740235526 L2.45079167,0.740235526 C2.0478953,0.743113426 1.7228145,1.07054328 1.7228145,1.47344993 L1.7228145,9.53357118 C1.7228145,9.93647784 2.04789529,10.2639077 2.45079167,10.2667856 L8.9763999,10.2667856 C9.37929628,10.2639077 9.70437706,9.93647784 9.70437706,9.53357118 L9.70437706,3.67309316 L9.70437706,3.66785592 Z M5.84976417,6.76830541 L5.84976417,6.9149483 L5.28937888,6.9149483 L5.28937888,6.74735643 C5.28579125,6.36559913 5.48519937,6.01065269 5.81310346,5.81512668 C6.14304994,5.59516236 6.28445558,5.35424905 6.24779485,5.09762402 C6.22333535,4.82692976 5.9958651,4.61993183 5.72407027,4.62103465 C5.53153173,4.5975011 5.33790046,4.65531811 5.18978762,4.78056789 C5.04167479,4.90581767 4.95249679,5.08715481 4.94372065,5.28092761 L4.38333536,5.09762402 C4.42354163,4.77444621 4.59234494,4.48112689 4.85157347,4.28399492 C5.110802,4.08686296 5.43856003,4.00256909 5.760731,4.05017485 C6.04837181,4.03433029 6.3298412,4.13765103 6.5389193,4.33582932 C6.7479974,4.53400762 6.86622593,4.80954746 6.86579106,5.09762402 C6.84528951,5.55902286 6.58508937,5.97613758 6.17971065,6.19744563 C5.95901284,6.30043133 5.82691819,6.53107278 5.84976417,6.77354266 L5.84976417,6.76830541 Z M5.23700641,7.29202999 L5.90737388,7.29202999 L5.90737388,7.93621122 L5.23700641,7.93621122 L5.23700641,7.29202999 Z" id="形状" fill="#999999" fill-rule="nonzero"></path>
    </g>
</svg>