<?xml version="1.0" encoding="UTF-8"?>
<svg width="12px" height="12px" viewBox="0 0 12 12" version="1.1" xmlns="http://www.w3.org/2000/svg" xmlns:xlink="http://www.w3.org/1999/xlink">
    <title>icon/我的权限@1x</title>
    <g id="icon/我的权限" stroke="none" stroke-width="1" fill="none" fill-rule="evenodd">
        <g id="编组" transform="translate(6.000000, 5.500000) scale(-1, -1) rotate(12.000000) translate(-6.000000, -5.500000) translate(1.000000, 0.000000)" fill="#999999" fill-rule="nonzero">
            <path d="M4.645,5.3522467 C5.39548754,6.10366877 6.52480303,6.3288515 7.50609934,5.92274288 C8.48739566,5.51663427 9.12730988,4.55925737 9.12730988,3.4972467 C9.12730988,2.43523603 8.48739566,1.47785914 7.50609934,1.07175052 C6.52480303,0.665641906 5.39548754,0.890824639 4.645,1.6422467 C3.62141318,2.66710812 3.62141318,4.32738529 4.645,5.3522467 L4.645,5.3522467 Z M4.02375,5.9734967 C2.65803369,4.60626019 2.65885522,2.39089066 4.02558519,1.02466743 C5.39231516,-0.341555808 7.60768484,-0.341555808 8.97441481,1.02466743 C10.3411448,2.39089066 10.3419663,4.60626019 8.97625,5.9734967 C8.3197611,6.63071635 7.42893237,7 6.5,7 C5.57106763,7 4.6802389,6.63071635 4.02375,5.9734967 L4.02375,5.9734967 Z" id="形状"></path>
            <path d="M4.14364549,6.14693667 C4.27037078,6.02021138 4.45507692,5.97071952 4.62818688,6.0171042 C4.80129685,6.06348887 4.93651113,6.19870315 4.9828958,6.37181312 C5.02928048,6.54492308 4.97978862,6.72962922 4.85306333,6.85635451 L0.856343089,10.8530748 C0.660442761,11.0489751 0.342825574,11.0489751 0.146925246,10.8530748 C-0.048975082,10.6571744 -0.048975082,10.3395572 0.146925246,10.1436569 L4.14364549,6.14693667 Z" id="路径"></path>
            <path d="M4.85315502,7.64617349 C5.04894833,7.84196679 5.04894833,8.15941045 4.85315502,8.35520375 C4.65736172,8.55099706 4.33991806,8.55099706 4.14412476,8.35520375 L3.64480767,7.85588666 C3.51815161,7.72923061 3.46868679,7.54462538 3.51504612,7.37160998 C3.56140546,7.19859459 3.69654586,7.06345419 3.86956125,7.01709485 C4.04257665,6.97073552 4.22718188,7.02020034 4.35383793,7.1468564 L4.85315502,7.64617349 Z" id="路径"></path>
            <path d="M3.85452084,9.14412476 C4.05031415,9.33991806 4.05031415,9.65736172 3.85452084,9.85315502 C3.65872754,10.0489483 3.34128388,10.0489483 3.14549058,9.85315502 L2.1468564,8.85452084 C2.02020034,8.72786479 1.97073552,8.54325956 2.01709485,8.37024416 C2.06345419,8.19722877 2.19859459,8.06208837 2.37160998,8.01572903 C2.54462538,7.9693697 2.72923061,8.01883452 2.85588666,8.14549058 L3.85452084,9.14412476 Z" id="路径"></path>
        </g>
    </g>
</svg>