<?xml version="1.0" encoding="UTF-8"?>
<svg width="12px" height="12px" viewBox="0 0 12 12" version="1.1" xmlns="http://www.w3.org/2000/svg" xmlns:xlink="http://www.w3.org/1999/xlink">
    <title>icon/日志@1x</title>
    <g id="icon/日志" stroke="none" stroke-width="1" fill="none" fill-rule="evenodd">
        <g id="编组" transform="translate(6.156250, 5.500000) scale(1, -1) translate(-6.156250, -5.500000) translate(1.000000, 0.000000)" fill="#999999" fill-rule="nonzero">
            <path d="M1.03125,6.875 C0.859375,6.875 0.6875,6.640625 0.6875,6.40625 L0.6875,3.90625 C0.6875,3.671875 0.859375,3.4375 1.03125,3.4375 C1.203125,3.4375 1.375,3.671875 1.375,3.90625 L1.375,6.40625 C1.375,6.71875 1.26041667,6.875 1.03125,6.875 L1.03125,6.875 Z" id="路径"></path>
            <path d="M10.3125,5.5 C10.3125,4.93589744 9.96875,4.51282051 9.4875,4.37179487 L9.4875,1.62179487 C9.4875,0.705128205 8.8,0 7.90625,0 L1.58125,0 C0.6875,0 0,0.705128205 0,1.62179487 L0,1.83333333 C0,2.04487179 0.20625,2.25641026 0.4125,2.25641026 C0.61875,2.25641026 0.825,2.04487179 0.825,1.83333333 L0.825,1.62179487 C0.825,1.19871795 1.16875,0.846153846 1.58125,0.846153846 L7.975,0.846153846 C8.3875,0.846153846 8.73125,1.19871795 8.73125,1.62179487 L8.73125,4.37179487 C8.31875,4.51282051 7.90625,5.00641026 7.90625,5.5 C7.90625,6.06410256 8.25,6.48717949 8.73125,6.62820513 L8.73125,9.37820513 C8.73125,9.80128205 8.3875,10.1538462 7.975,10.1538462 L1.58125,10.1538462 C1.16875,10.1538462 0.825,9.80128205 0.825,9.37820513 L0.825,9.16666667 C0.825,8.95512821 0.61875,8.74358974 0.4125,8.74358974 C0.20625,8.74358974 0,8.95512821 0,9.16666667 L0,9.37820513 C0,10.2948718 0.6875,11 1.58125,11 L7.975,11 C8.86875,11 9.55625,10.2948718 9.55625,9.37820513 L9.55625,6.69871795 C10.0375,6.48717949 10.3125,6.06410256 10.3125,5.5 Z M9.14375,6.06410256 C8.86875,6.06410256 8.59375,5.8525641 8.59375,5.5 C8.59375,5.21794872 8.8,4.93589744 9.14375,4.93589744 C9.4875,4.93589744 9.69375,5.1474359 9.69375,5.5 C9.625,5.78205128 9.41875,6.06410256 9.14375,6.06410256 Z" id="形状"></path>
            <path d="M7.1567623,3.575 L3.8432377,3.575 C3.64036885,3.575 3.4375,3.4375 3.4375,3.1625 C3.4375,2.95625 3.64036885,2.75 3.8432377,2.75 L7.1567623,2.75 C7.35963115,2.75 7.5625,2.95625 7.5625,3.1625 C7.5625,3.4375 7.35963115,3.575 7.1567623,3.575 Z M7.1567623,5.9125 L3.8432377,5.9125 C3.64036885,5.9125 3.4375,5.775 3.4375,5.5 C3.4375,5.29375 3.64036885,5.0875 3.8432377,5.0875 L7.1567623,5.0875 C7.35963115,5.0875 7.5625,5.29375 7.5625,5.5 C7.5625,5.775 7.35963115,5.9125 7.1567623,5.9125 Z M7.1567623,8.25 L3.8432377,8.25 C3.64036885,8.25 3.4375,8.04375 3.4375,7.8375 C3.4375,7.63125 3.64036885,7.425 3.8432377,7.425 L7.1567623,7.425 C7.35963115,7.425 7.5625,7.63125 7.5625,7.8375 C7.5625,8.1125 7.35963115,8.25 7.1567623,8.25 Z" id="形状"></path>
            <path d="M1.63577586,7.5625 L0.426724138,7.5625 C0.213362069,7.5625 0,7.390625 0,7.21875 C0,7.046875 0.213362069,6.875 0.426724138,6.875 L1.63577586,6.875 C1.84913793,6.875 2.0625,7.046875 2.0625,7.21875 C2.0625,7.44791667 1.84913793,7.5625 1.63577586,7.5625 Z" id="路径"></path>
            <path d="M1.63577586,3.4375 L0.426724138,3.4375 C0.142241379,3.4375 0,3.32291667 0,3.09375 C0,2.921875 0.142241379,2.75 0.426724138,2.75 L1.63577586,2.75 C1.84913793,2.75 2.0625,2.921875 2.0625,3.09375 C2.0625,3.32291667 1.84913793,3.4375 1.63577586,3.4375 Z" id="路径"></path>
        </g>
    </g>
</svg>