<?xml version="1.0" encoding="UTF-8"?>
<svg width="12px" height="12px" viewBox="0 0 12 12" version="1.1" xmlns="http://www.w3.org/2000/svg" xmlns:xlink="http://www.w3.org/1999/xlink">
    <title>icon/皮肤@1x</title>
    <g id="icon/皮肤" stroke="none" stroke-width="1" fill="none" fill-rule="evenodd">
        <path d="M11.3125,2.00000425 L7.5578125,2.00000425 C7.47184176,1.9994284 7.39649122,2.05739036 7.375,2.14063357 L7.3375,2.28125857 C7.210046,2.77904711 6.76150249,3.12721449 6.24765625,3.12721449 C5.73381001,3.12721449 5.2852665,2.77904711 5.1578125,2.28125857 L5.1203125,2.14063357 C5.09882128,2.05739036 5.02347074,1.9994284 4.9375,2.00000425 L1.1875,2.00000425 C1.08394661,2.00000425 1,2.08395518 1,2.18750857 L1,6.31250857 C1,6.41606196 1.08394661,6.50000425 1.1875,6.50000425 L2.875,6.50000425 L2.875,10.8078211 L2.875,10.8078211 L2.875,11.1828211 C2.875,11.2863745 2.95894661,11.3703211 3.0625,11.3703211 L9.4375,11.3703211 C9.54105339,11.3703211 9.625,11.2863745 9.625,11.1828211 L9.625,10.8078211 L9.625,10.8078211 L9.625,6.50000425 L11.3125,6.50000425 C11.4160534,6.50000425 11.5,6.41606196 11.5,6.31250857 L11.5,2.18750857 C11.5,2.08395518 11.4160534,2.00000425 11.3125,2.00000425 Z M8.875,5.75000857 L8.875,10.6250086 L3.625,10.6250086 L3.625,5.75000857 L1.75,5.75000857 L1.75,2.75000857 L4.5296875,2.75000857 C4.82688456,3.43558506 5.50277767,3.87925398 6.25,3.87925398 C6.99722233,3.87925398 7.67311544,3.43558506 7.9703125,2.75000857 L10.75,2.75000857 L10.75,5.75000857 L8.875,5.75000857 Z" id="Shape" fill="#999999" fill-rule="nonzero"></path>
    </g>
</svg>