<?xml version="1.0" encoding="UTF-8"?>
<svg width="12px" height="12px" viewBox="0 0 12 12" version="1.1" xmlns="http://www.w3.org/2000/svg" xmlns:xlink="http://www.w3.org/1999/xlink">
    <title>icon/退出@1x</title>
    <g id="icon/退出" stroke="none" stroke-width="1" fill="none" fill-rule="evenodd">
        <path d="M6.25,1 C7.75,1 9.16459375,1.63464062 10.1613438,2.74792187 C10.2322656,2.82709375 10.2230313,2.94953125 10.1413281,3.0175 L9.85276563,3.25745312 C9.77546875,3.32176563 9.66132813,3.31342188 9.5940625,3.23870313 C8.74,2.29032812 7.53132813,1.75 6.25,1.75 C3.76867188,1.75 1.75,3.76867187 1.75,6.25 C1.75,8.73132812 3.76867188,10.75 6.25,10.75 C7.53142188,10.75 8.7401875,10.2095781 9.59425,9.26101563 C9.6615625,9.18634375 9.77565625,9.178 9.853,9.24226562 L10.1415625,9.48226563 C10.2232656,9.5501875 10.2325,9.67267188 10.161625,9.75179688 C9.16478125,10.8652656 7.75009375,11.5 6.25,11.5 C3.35514063,11.5 1,9.14485937 1,6.25 C1,3.35514062 3.35514063,1 6.25,1 Z M9.6638125,4.61741875 C9.73703125,4.5442 9.85571875,4.5442 9.92898438,4.61741875 L9.92898438,4.61741875 L11.4289844,6.11741875 C11.5021563,6.1906375 11.5021563,6.30937187 11.4289844,6.38254375 L11.4289844,6.38254375 L9.92898438,7.88254375 C9.85576563,7.95580937 9.73703125,7.95580937 9.6638125,7.88254375 L9.6638125,7.88254375 L9.39864063,7.61737187 C9.32542188,7.5442 9.32542188,7.42546562 9.39864063,7.35224687 L9.39864063,7.35224687 L10.1259063,6.62498125 L5.68833858,6.62498125 C5.5847917,6.62498125 5.50083858,6.54102812 5.50083858,6.43748125 L5.50083858,6.43748125 L5.50083858,6.06248125 C5.50083858,5.95893437 5.5847917,5.87498125 5.68833858,5.87498125 L5.68833858,5.87498125 L10.1259063,5.87498125 L9.39864063,5.1477625 C9.32542188,5.07449687 9.32542188,4.95580937 9.39864063,4.88254375 L9.39864063,4.88254375 Z" id="形状结合备份" fill="#999999"></path>
    </g>
</svg>