<?xml version="1.0" encoding="UTF-8"?>
<svg width="16px" height="16px" viewBox="0 0 16 16" version="1.1" xmlns="http://www.w3.org/2000/svg" xmlns:xlink="http://www.w3.org/1999/xlink">
    <title>icon/首页/验证码</title>
    <g id="icon/首页/验证码" stroke="none" stroke-width="1" fill="none" fill-rule="evenodd">
        <path d="M8,16 C6.12748054,15.2223005 4.77573221,14.4982021 3.94475502,13.8277045 C2.27001279,12.4763912 1,10.4516047 1,8.38304369 L1,2.13229659 L1.69125,2.11600085 C1.79012499,2.11600085 1.952,2.1070382 2.17600001,2.09074248 C2.400875,2.07444674 2.78675,2.01741168 3.33449999,1.91882249 C3.85552841,1.82728435 4.36743361,1.69537338 4.864875,1.52446577 C5.99624999,1.12114639 6.9045,0.699086928 7.58875,0.261546501 L8,0 L8.41212501,0.261546501 C9.0955,0.699086913 10.004625,1.12114639 11.136,1.52446577 C11.609375,1.68905268 12.118625,1.82023332 12.66725,1.91882249 C13.214125,2.01741168 13.6,2.07444674 13.824,2.09074248 C14.048,2.10703821 14.209875,2.11600087 14.309625,2.11600085 L15,2.13229659 L15,8.38304369 C15,10.366165 13.8327336,12.3090533 12.2606329,13.6568584 C11.4018231,14.3931396 9.98161214,15.1741868 8,16 Z M8,8 C8.55228475,8 9,7.55228475 9,7 C9,6.44771525 8.55228475,6 8,6 C7.44771525,6 7,6.44771525 7,7 C7,7.55228475 7.44771525,8 8,8 Z M11,8 C11.5522847,8 12,7.55228475 12,7 C12,6.44771525 11.5522847,6 11,6 C10.4477153,6 10,6.44771525 10,7 C10,7.55228475 10.4477153,8 11,8 Z M5,8 C5.55228475,8 6,7.55228475 6,7 C6,6.44771525 5.55228475,6 5,6 C4.44771525,6 4,6.44771525 4,7 C4,7.55228475 4.44771525,8 5,8 Z" id="形状" fill="#5A87FB" fill-rule="nonzero"></path>
    </g>
</svg>